<?xml version="1.0" encoding="utf-8"?>
<svg
	version="1.1"
	xmlns="http://www.w3.org/2000/svg"
	xmlns:xlink="http://www.w3.org/1999/xlink"
	x="0px"
	y="0px"
	viewBox="0 0 100 100"
>
<g>
	<path d="M57.3,69.7c-4.6,0.6-9.1-0.7-12.8-3.4l-24.1,2.7v10.5l64.1-10v-7.8l-15.9,1.8C65.6,66.9,61.7,69.1,57.3,69.7z" />
	<path d="M35.4,52.1l-15,0.7V63l19.2-1.7C37.7,58.7,36.3,55.5,35.4,52.1z"/>
	<path d="M44.3,22.7l-23.9-1.9v10.7l16.7,0.6C38.8,28.2,41.3,25,44.3,22.7z"/>
	<path d="M72.4,58.4l12.1-1.1v-7.6l-9.2,0.4C74.8,53.1,73.8,55.9,72.4,58.4z"/>
	<path d="M34.5,44.6c0-2.4,0.3-4.7,0.7-6.9l-14.8-0.2v9.3l14.2-0.3C34.5,45.8,34.5,45.2,34.5,44.6z"/>
	<path d="M57.3,55.4c-8.5,0.6-16-7.8-16-18.8c0-0.7,0-1.3,0.1-2c-1.2,2.9-1.9,6.2-1.9,9.7c0,12.1,8.4,21.2,17.8,20.2
		c8.9-1,15.3-10.3,15.3-20.7c0-2.9-0.5-5.6-1.4-8.2c0,0.5,0,1,0,1.5C71.2,46.7,65.3,54.9,57.3,55.4z"/>
	<path d="M47.4,30.2c-0.9,1.9-1.4,4.1-1.4,6.5c0,7.8,5.3,13.8,11.3,13.5c5.9-0.3,10.2-6.2,10.2-13.1
		c0-2.1-0.4-4.2-1.1-6c-0.2,6-4,10.9-9.1,11C52.1,42.1,47.5,36.9,47.4,30.2z"/>
	<path d="M76,43.9c0,0.5,0,1,0,1.5l8.6-0.2v-6.9l-9.1-0.1C75.8,40.1,76,42,76,43.9z"/>
	<path d="M89.2,0H10.8C4.8,0,0,4.8,0,10.8v78.4c0,6,4.8,10.8,10.8,10.8h78.4c6,0,10.8-4.8,10.8-10.8V10.8
		C100,4.8,95.2,0,89.2,0z M57.3,18.6c1.1,0.1,2.1,1.4,2.1,2.8c0,1.4-0.9,2.5-2.1,2.4c-1.2-0.1-2.1-1.3-2.1-2.8
		C55.2,19.5,56.1,18.4,57.3,18.6z M88.9,73.2L12,87.1V13.8l41.6,4.4c-0.4,0.7-0.6,1.6-0.6,2.6c0,1.5,0.5,2.8,1.3,3.8
		c-1.5,1.1-2.4,3.1-2.4,5.5c0,3.8,2.5,6.8,5.5,6.9c2.9,0.1,5.2-2.8,5.2-6.4c0-2.2-0.9-4.3-2.3-5.6c0.7-0.9,1.2-2.1,1.2-3.5
		c0-0.9-0.2-1.8-0.5-2.6c0,0,0,0,0,0l28.1,3V73.2z"/>
	<path d="M84.5,33.9v-8l-15.7-1.3c2.3,2.4,4.1,5.4,5.3,8.8L84.5,33.9z"/>
</g>
</svg>
